<?xml version="1.0" standalone="no"?>
<!DOCTYPE svg PUBLIC "-//W3C//DTD SVG 20010904//EN"
 "http://www.w3.org/TR/2001/REC-SVG-20010904/DTD/svg10.dtd">
<svg version="1.0" xmlns="http://www.w3.org/2000/svg"
 width="492.000000pt" height="235.000000pt" viewBox="0 0 492.000000 235.000000"
 preserveAspectRatio="xMidYMid meet">

<g transform="translate(0.000000,235.000000) scale(0.100000,-0.100000)"
fill="#000000" stroke="none">
<path d="M0 1676 l0 -433 128 -5 c108 -5 141 -10 221 -37 201 -67 267 -117
636 -481 369 -363 519 -478 767 -584 256 -109 444 -141 780 -133 242 5 331 20
533 88 189 65 347 152 535 297 47 36 207 188 355 336 149 149 305 297 348 329
161 121 308 175 500 184 l117 6 0 435 0 435 -132 -6 c-304 -15 -553 -83 -793
-219 -176 -99 -304 -207 -620 -518 -315 -311 -397 -377 -534 -435 -251 -105
-560 -97 -791 20 -125 64 -216 140 -505 425 -287 282 -427 401 -580 492 -256
152 -574 238 -881 238 l-84 0 0 -434z"/>
</g>
</svg>
