<?xml version="1.0" encoding="UTF-8" standalone="no"?> <!-- Created with Vectornator for iOS (http://vectornator.io/) --><!DOCTYPE svg PUBLIC "-//W3C//DTD SVG 1.1//EN" "http://www.w3.org/Graphics/SVG/1.1/DTD/svg11.dtd">
<svg height="100%" style="fill-rule:nonzero;clip-rule:evenodd;stroke-linecap:round;stroke-linejoin:round;" xmlns:xlink="http://www.w3.org/1999/xlink" xmlns="http://www.w3.org/2000/svg" xml:space="preserve" width="100%" xmlns:vectornator="http://vectornator.io" version="1.1" viewBox="0 0 24 24">
<metadata>
<vectornator:setting key="DimensionsVisible" value="1"/>
<vectornator:setting key="PencilOnly" value="0"/>
<vectornator:setting key="SnapToPoints" value="0"/>
<vectornator:setting key="OutlineMode" value="0"/>
<vectornator:setting key="CMYKEnabledKey" value="0"/>
<vectornator:setting key="RulersVisible" value="1"/>
<vectornator:setting key="SnapToEdges" value="0"/>
<vectornator:setting key="GuidesVisible" value="1"/>
<vectornator:setting key="DisplayWhiteBackground" value="0"/>
<vectornator:setting key="doHistoryDisabled" value="0"/>
<vectornator:setting key="SnapToGuides" value="1"/>
<vectornator:setting key="TimeLapseWatermarkDisabled" value="0"/>
<vectornator:setting key="Units" value="Points"/>
<vectornator:setting key="DynamicGuides" value="0"/>
<vectornator:setting key="IsolateActiveLayer" value="0"/>
<vectornator:setting key="SnapToGrid" value="0"/>
</metadata>
<defs/>
<g id="Untitled" vectornator:layerName="Untitled">
<path d="M-0.0810555-0.11716L24.1092-0.11716L24.1092+24.0917L-0.0810555+24.0917L-0.0810555-0.11716Z" opacity="1" fill="#000000"/>
<path d="M12+0C5.374+0+0+5.373+0+12C0+17.302+3.438+21.8+8.207+23.387C8.806+23.498+9+23.126+9+22.81L9+20.576C5.662+21.302+4.967+19.16+4.967+19.16C4.421+17.773+3.634+17.404+3.634+17.404C2.545+16.659+3.717+16.675+3.717+16.675C4.922+16.759+5.556+17.912+5.556+17.912C6.626+19.746+8.363+19.216+9.048+18.909C9.155+18.134+9.466+17.604+9.81+17.305C7.145+17+4.343+15.971+4.343+11.374C4.343+10.063+4.812+8.993+5.579+8.153C5.455+7.85+5.044+6.629+5.696+4.977C5.696+4.977+6.704+4.655+8.997+6.207C9.954+5.941+10.98+5.808+12+5.803C13.02+5.808+14.047+5.941+15.006+6.207C17.297+4.655+18.303+4.977+18.303+4.977C18.956+6.63+18.545+7.851+18.421+8.153C19.191+8.993+19.656+10.064+19.656+11.374C19.656+15.983+16.849+16.998+14.177+17.295C14.607+17.667+15+18.397+15+19.517L15+22.81C15+23.129+15.192+23.504+15.801+23.386C20.566+21.797+24+17.3+24+12C24+5.373+18.627+0+12+0Z" opacity="1" fill="#ffffff"/>
</g>
</svg>
