<?xml version="1.0" encoding="utf-8"?>
<!-- Generator: Adobe Illustrator 25.0.1, SVG Export Plug-In . SVG Version: 6.00 Build 0)  -->
<svg version="1.1" id="Layer_1" xmlns="http://www.w3.org/2000/svg" xmlns:xlink="http://www.w3.org/1999/xlink" x="0px" y="0px"
	 viewBox="0 0 1080 1080" style="enable-background:new 0 0 1080 1080;" xml:space="preserve">
<path d="M1043.9,490.2c-0.1-2.6-0.2-5.1-0.2-8.2l0-1.6c2.2-4.6,0.9-11.7-2.1-25.1c-0.2-0.9-0.3-1.6-0.4-2c-3-14.9-5.6-30-8.3-46
	l-2.5-14.9c0.1-4.3-2.4-11.2-7.4-25.1c-1-2.7-1.7-4.8-2.1-5.9c-18.4-56.2-45.2-107.4-79.5-152.2C883.1,133,807.8,77.1,717.4,43
	C634.5,11.7,548.2,3.4,461,18.2c-6.6,1.2-76.2,17.7-89.5,22.9c-4.9,1.9-59.5,26-67.4,30.2c-0.2,0.1-0.4,0.3-0.6,0.4l0,0l-0.2,0.1
	c-11.6,7.5-114,74.4-156.5,129.1C58.4,314.4,23.5,444.5,42.7,587.5C58.2,703,110.7,803,198.6,884.7c5.5,5.1,6.3,16.3,6.3,16.3
	s-5.1,173.3-3,174.5l0.1,0.1l157-86.2c0,0,5.5-2.4,7.7-1.6c63.7,24.3,129.5,34.7,195.5,31.2c137.9-7.4,255.4-62.3,349.2-163.5
	C1005.5,753.9,1050,631.1,1043.9,490.2z"/>
</svg>
