<?xml version="1.0" encoding="utf-8"?>
<!-- Generator: Adobe Illustrator 25.0.1, SVG Export Plug-In . SVG Version: 6.00 Build 0)  -->
<svg version="1.1" id="Layer_1" xmlns="http://www.w3.org/2000/svg" xmlns:xlink="http://www.w3.org/1999/xlink" x="0px" y="0px"
	 viewBox="0 0 1080 1080" style="enable-background:new 0 0 1080 1080;" xml:space="preserve">
<path d="M928.9,207.2c-1.3-2-2.6-4-4.1-6.4l-0.8-1.3c-0.5-4.7-4.9-9.8-13.8-19c-0.6-0.6-1-1.1-1.3-1.4
	c-9.6-10.4-18.9-21.2-28.8-32.7l-9.2-10.7c-2-3.5-7.3-7.8-18-16.4c-2.1-1.7-3.7-3-4.5-3.7c-41.8-35.9-87.8-63.8-136.8-83
	C628.3,0,541.3-8.2,452.8,8.2c-81.2,15.1-154,50.1-216.4,103.9c-4.7,4.1-52.2,50.9-60.3,61.4c-3,3.9-34.9,49.4-39.2,56.6
	c-0.1,0.2-0.2,0.4-0.3,0.6l0,0l-0.1,0.2c-5.6,11.6-55,114.3-62.5,178.4C58.4,542.5,93.3,663.1,177.6,767.8
	c68.1,84.6,158.2,139,267.7,161.7c6.8,1.4,12.9,9.9,12.9,9.9S537.7,1080,540,1080h0.1l83.6-144.5c0,0,3.2-4.6,5.4-5
	c62.5-11.4,120-34.8,170.9-69.4c106.4-72.4,173.5-172.9,199.5-298.8C1025.5,436,1001.7,316.6,928.9,207.2z"/>
</svg>
