<?xml version="1.0" encoding="utf-8"?>
<!-- Generator: Adobe Illustrator 25.0.1, SVG Export Plug-In . SVG Version: 6.00 Build 0)  -->
<svg version="1.1" id="Flat" xmlns="http://www.w3.org/2000/svg" xmlns:xlink="http://www.w3.org/1999/xlink" x="0px" y="0px"
	 viewBox="0 0 256 233.8" style="enable-background:new 0 0 256 233.8;" xml:space="preserve">
<path d="M108,73.7c0-22.1-17.9-40-40-40s-40,17.9-40,40c0,17.5,11.3,32.9,28,38.2v43.7c-21.1,6.6-32.8,29.1-26.2,50.2
	s29.1,32.8,50.2,26.2c21.1-6.6,32.8-29.1,26.2-50.2c-3.9-12.5-13.7-22.2-26.2-26.2v-43.7C96.7,106.6,108,91.2,108,73.7z M68,57.7
	c8.8,0,16,7.2,16,16s-7.2,16-16,16s-16-7.2-16-16C52,64.9,59.2,57.8,68,57.7z M68,209.7c-8.8,0-16-7.2-16-16s7.2-16,16-16
	s16,7.2,16,16C84,202.6,76.8,209.7,68,209.7z M200,155.6l0-30c0-15.9-6.3-31.2-17.6-42.4L165,65.7h11c6.6,0,12-5.4,12-12
	s-5.4-12-12-12h-40c-0.4,0-0.8,0-1.2,0.1c-0.2,0-0.3,0-0.5,0.1c-0.2,0-0.5,0.1-0.7,0.1c-0.2,0-0.4,0.1-0.6,0.1
	c-0.2,0-0.4,0.1-0.6,0.1c-0.2,0.1-0.4,0.1-0.5,0.2c-0.2,0.1-0.4,0.1-0.6,0.2c-0.2,0.1-0.3,0.1-0.5,0.2c-0.2,0.1-0.4,0.2-0.6,0.3
	c-0.2,0.1-0.3,0.2-0.4,0.3c-0.2,0.1-0.4,0.2-0.6,0.3c-0.2,0.1-0.3,0.2-0.5,0.3c-0.2,0.1-0.3,0.2-0.5,0.3c-0.3,0.2-0.6,0.5-0.8,0.7
	c0,0,0,0-0.1,0.1s0,0-0.1,0.1c-0.3,0.3-0.5,0.5-0.7,0.8c-0.1,0.1-0.2,0.3-0.3,0.4c-0.1,0.2-0.2,0.3-0.4,0.5
	c-0.1,0.2-0.2,0.4-0.3,0.5c-0.1,0.2-0.2,0.3-0.3,0.5c-0.1,0.2-0.2,0.4-0.3,0.6c-0.1,0.2-0.2,0.3-0.2,0.5c-0.1,0.2-0.1,0.4-0.2,0.6
	c-0.1,0.2-0.1,0.4-0.2,0.6c-0.1,0.2-0.1,0.4-0.1,0.6c0,0.2-0.1,0.4-0.1,0.6c0,0.2-0.1,0.4-0.1,0.7c0,0.2-0.1,0.3-0.1,0.5
	c0,0.4-0.1,0.8-0.1,1.2v40c0,6.6,5.4,12,12,12s12-5.4,12-12v-11l17.5,17.5c6.8,6.7,10.6,15.9,10.5,25.5l0,30
	c-21.1,6.6-32.8,29.1-26.2,50.2c6.6,21.1,29.1,32.8,50.2,26.2c21.1-6.6,32.8-29.1,26.2-50.2C222.2,169.3,212.5,159.5,200,155.6
	L200,155.6z M188,209.7c-8.8,0-16-7.2-16-16s7.2-16,16-16s16,7.2,16,16C204,202.6,196.8,209.7,188,209.7z"/>
</svg>
