<?xml version="1.0" encoding="utf-8"?>
<!-- Generator: Adobe Illustrator 25.4.1, SVG Export Plug-In . SVG Version: 6.00 Build 0)  -->
<svg version="1.1" id="Lager_1" xmlns="http://www.w3.org/2000/svg" xmlns:xlink="http://www.w3.org/1999/xlink" x="0px" y="0px"
	 viewBox="0 0 100 11.9" style="enable-background:new 0 0 100 11.9;" xml:space="preserve">
<style type="text/css">
	.st0{fill:#FFFFFF;}
</style>
<g>
	<path class="st0" d="M9.1,7C9,7,8.7,7,8.5,7c-0.4,0-0.9,0-1.6,0L6.2,7C5.9,7,5.7,7,5.5,7c0,0,0,0-0.1,0c0,0,0,0,0,0.1v0.3
		c0,0,0,0.1,0.1,0.1c0.4,0,0.7,0,0.9,0.1c0.2,0.1,0.3,0.2,0.4,0.3c0.1,0.2,0.1,0.5,0.1,0.9v1.4c0,0.2,0,0.3-0.1,0.4
		c0,0.1-0.2,0.2-0.3,0.3c-0.1,0.1-0.3,0.2-0.6,0.3c-0.2,0.1-0.5,0.1-0.9,0.1c-1.2,0-2-0.4-2.6-1.2C1.9,9.4,1.7,8.1,1.7,6.4
		c0-0.8,0.1-1.5,0.2-2.1C2,3.6,2.2,3.1,2.5,2.7c0.3-0.4,0.6-0.8,1-1c0.4-0.2,0.8-0.3,1.3-0.3c0.5,0,0.9,0.1,1.4,0.3
		C6.6,1.8,7,2.1,7.3,2.4C7.5,2.7,7.6,3,7.7,3.4C7.8,3.8,7.9,4.2,8,4.6c0,0,0,0.1,0.1,0.1h0.3c0.1,0,0.1,0,0.1-0.1c0-0.9,0-1.5,0-2.1
		c0-0.5,0-1,0-1.3c0,0,0,0,0-0.1c0,0,0,0-0.1,0H8.1c0,0-0.1,0-0.1,0.1C8,1.9,7.8,2,7.8,2c0,0-0.1,0-0.2-0.1C7.2,1.6,6.8,1.4,6.4,1.2
		C6,1,5.5,0.9,4.8,0.9c-0.9,0-1.8,0.2-2.5,0.7C1.6,2,1,2.7,0.6,3.5C0.2,4.4,0,5.4,0,6.5c0,1.7,0.4,3,1.3,3.9
		c0.9,0.9,2.1,1.4,3.6,1.4c0.5,0,0.9-0.1,1.3-0.2c0.4-0.1,0.7-0.3,1-0.6c0.1-0.1,0.2-0.2,0.3-0.2c0,0,0.1,0,0.1,0c0,0,0.1,0,0.2,0.2
		C8,11.2,8,11.4,8,11.6c0,0,0,0.1,0.1,0.1h0.3c0.1,0,0.1,0,0.1-0.1V8.7c0-0.7,0.1-0.9,0.1-1c0.1-0.1,0.3-0.2,0.5-0.2
		c0,0,0.1,0,0.1-0.1L9.1,7C9.2,7.1,9.2,7.1,9.1,7C9.2,7,9.1,7,9.1,7z"/>
	<path class="st0" d="M11.6,2.3c0.3,0,0.5-0.1,0.7-0.3c0.2-0.2,0.3-0.4,0.3-0.7c0-0.3-0.1-0.5-0.3-0.7c-0.2-0.2-0.4-0.3-0.7-0.3
		c-0.3,0-0.5,0.1-0.7,0.3c-0.2,0.2-0.3,0.4-0.3,0.7c0,0.3,0.1,0.5,0.3,0.7C11.1,2.2,11.3,2.3,11.6,2.3z"/>
	<path class="st0" d="M13.5,11.2c-0.4,0-0.6-0.1-0.8-0.2c-0.1-0.1-0.2-0.4-0.2-0.8V3.8c0,0,0-0.1,0-0.1c0,0-0.1,0-0.1,0
		c-0.2,0.1-0.4,0.1-0.7,0.2C11.1,4,10.5,4,9.9,3.9c0,0-0.1,0-0.1,0c0,0,0,0,0,0.1v0.3c0,0.1,0,0.1,0.1,0.1c0.4,0,0.7,0.1,0.8,0.3
		c0.1,0.2,0.2,0.5,0.2,0.9v4.6c0,0.4-0.1,0.6-0.2,0.8c-0.2,0.1-0.4,0.2-0.8,0.2c-0.1,0-0.1,0-0.1,0.1v0.3c0,0,0,0,0,0.1
		c0,0,0,0,0.1,0c0,0,0,0,0,0c0.2,0,0.4,0,0.8,0c0.7,0,1.4,0,2,0c0.3,0,0.6,0,0.8,0c0,0,0.1,0,0.1,0c0,0,0,0,0-0.1L13.5,11.2
		C13.6,11.2,13.6,11.2,13.5,11.2C13.5,11.2,13.5,11.2,13.5,11.2z"/>
	<path class="st0" d="M18.7,9.6c0,0-0.1,0-0.1,0.1c-0.2,0.6-0.3,0.9-0.5,1.2c-0.2,0.2-0.4,0.3-0.7,0.3c-0.3,0-0.5-0.1-0.6-0.2
		s-0.2-0.5-0.2-0.9V4.4h2.1c0.1,0,0.1,0,0.1-0.1V4c0-0.1,0-0.1-0.1-0.1h-2.1V1.6c0,0,0-0.1,0-0.1c0,0-0.1,0-0.1,0
		c-0.2,0.1-0.4,0.1-0.6,0.1c-0.2,0-0.5,0-0.7,0.1c0,0-0.1,0-0.1,0.1v2.2h-1.3c-0.1,0-0.1,0-0.1,0.1v0.3c0,0.1,0,0.1,0.1,0.1H15v4.8
		c0,0.5,0,1,0.1,1.3c0.1,0.3,0.2,0.6,0.5,0.9c0.2,0.2,0.4,0.3,0.6,0.4c0.2,0.1,0.5,0.1,0.9,0.1c0.6,0,1.1-0.2,1.4-0.6
		c0.3-0.4,0.5-0.9,0.6-1.5c0,0,0-0.1-0.1-0.1L18.7,9.6z"/>
	<path class="st0" d="M29.2,1.1c-0.2,0-0.5,0-0.8,0c-0.6,0-1.3,0-2.1,0c-0.3,0-0.6,0-0.9,0c0,0-0.1,0-0.1,0c0,0,0,0,0,0.1v0.3
		c0,0,0,0.1,0.1,0.1c0.3,0,0.6,0,0.7,0.1c0.1,0.1,0.2,0.2,0.3,0.3c0.1,0.2,0.1,0.4,0.1,0.8v3.4H22V2.7c0-0.3,0-0.6,0.1-0.8
		c0-0.1,0.1-0.2,0.3-0.3c0.2-0.1,0.4-0.1,0.7-0.1c0,0,0.1,0,0.1-0.1V1.2c0,0,0,0,0-0.1c0,0,0,0-0.1,0c-0.2,0-0.5,0-0.8,0
		c-0.7,0-1.5,0-2.1,0c-0.3,0-0.6,0-0.8,0c0,0,0,0-0.1,0c0,0,0,0,0,0.1v0.3c0,0,0,0.1,0.1,0.1c0.3,0,0.6,0,0.7,0.1
		c0.1,0.1,0.2,0.2,0.3,0.3c0.1,0.2,0.1,0.4,0.1,0.8V10c0,0.3,0,0.6-0.1,0.8c0,0.1-0.1,0.2-0.3,0.3c-0.2,0.1-0.4,0.1-0.7,0.1
		c0,0-0.1,0-0.1,0.1v0.3c0,0,0,0.1,0,0.1c0,0,0,0,0.1,0c0.2,0,0.5,0,0.8,0c0.6,0,1.4,0,2.1,0c0.3,0,0.6,0,0.8,0c0,0,0.1,0,0.1,0
		c0,0,0,0,0-0.1v-0.3c0,0,0-0.1-0.1-0.1c-0.3,0-0.6-0.1-0.7-0.1c-0.1,0-0.2-0.1-0.3-0.3C22,10.6,22,10.4,22,10V6.6h4.6V10
		c0,0.3,0,0.6-0.1,0.8c0,0.1-0.1,0.2-0.3,0.3c-0.2,0.1-0.4,0.1-0.7,0.1c0,0-0.1,0-0.1,0.1v0.3c0,0,0,0.1,0,0.1c0,0,0,0,0.1,0
		c0,0,0,0,0,0c0.2,0,0.5,0,0.8,0c0.7,0,1.5,0,2.1,0c0.3,0,0.6,0,0.8,0c0,0,0.1,0,0.1,0c0,0,0,0,0-0.1v-0.3c0,0,0-0.1-0.1-0.1
		c-0.3,0-0.6-0.1-0.7-0.1c-0.1,0-0.2-0.1-0.3-0.3c-0.1-0.2-0.1-0.4-0.1-0.8V2.7c0-0.4,0-0.6,0.1-0.8c0-0.1,0.1-0.2,0.3-0.3
		c0.2-0.1,0.4-0.1,0.7-0.1c0,0,0.1,0,0.1-0.1L29.2,1.1C29.3,1.1,29.3,1.1,29.2,1.1C29.3,1.1,29.2,1.1,29.2,1.1z"/>
	<path class="st0" d="M36.9,10.9c-0.1-0.2-0.2-0.5-0.2-0.9V3.8c0,0,0-0.1,0-0.1c0,0-0.1,0-0.1,0c-0.2,0.1-0.4,0.1-0.7,0.2
		c-0.5,0.1-1.1,0.1-1.7,0c0,0-0.1,0-0.1,0c0,0,0,0,0,0.1v0.3c0,0.1,0,0.1,0.1,0.1c0.4,0,0.7,0.1,0.8,0.3c0.1,0.2,0.2,0.5,0.2,0.9v3
		c0,0.7-0.2,1.3-0.5,1.8c-0.4,0.5-0.8,0.7-1.4,0.7c-0.3,0-0.6-0.1-0.7-0.2c-0.1-0.1-0.2-0.3-0.3-0.6c0-0.2-0.1-0.5-0.1-0.8V3.8
		c0,0,0-0.1,0-0.1c0,0-0.1,0-0.1,0c-0.2,0.1-0.4,0.1-0.7,0.2C31,4,30.4,4,29.8,3.9c0,0-0.1,0-0.1,0c0,0,0,0,0,0.1v0.3
		c0,0.1,0,0.1,0.1,0.1c0.4,0,0.7,0.1,0.8,0.3c0.1,0.2,0.2,0.5,0.2,0.9v3.7c0,0.5,0,0.9,0.1,1.2c0.1,0.3,0.2,0.6,0.4,0.8
		c0.2,0.2,0.4,0.3,0.7,0.4c0.3,0.1,0.6,0.2,0.9,0.2c0.5,0,1-0.1,1.4-0.4c0.4-0.2,0.7-0.6,0.9-1v1.3c0,0,0,0.1,0,0.1c0,0,0.1,0,0.1,0
		c0.2-0.1,0.4-0.1,0.7-0.2c0.5-0.1,1.1-0.1,1.7,0c0,0,0.1,0,0.1,0c0,0,0,0,0-0.1v-0.3c0-0.1,0-0.1-0.1-0.1
		C37.4,11.2,37.1,11.1,36.9,10.9z"/>
	<path class="st0" d="M42.7,3.7c-0.7,0-1.3,0.2-1.8,0.7c-0.2,0.2-0.3,0.4-0.4,0.6V0.1c0,0,0-0.1,0-0.1c0,0-0.1,0-0.1,0
		c-0.2,0.1-0.4,0.1-0.7,0.2c-0.5,0.1-1.1,0.1-1.7,0c0,0-0.1,0-0.1,0c0,0,0,0,0,0.1v0.3c0,0.1,0,0.1,0.1,0.1c0.4,0,0.7,0.1,0.8,0.3
		C38.9,1.1,39,1.4,39,1.8v9c0,0.1,0,0.3,0,0.4c0,0.1,0,0.3-0.1,0.4c0,0,0,0.1,0.1,0.1l0.3,0.1c0,0,0,0,0,0c0,0,0,0,0.1,0
		c0.1-0.1,0.3-0.2,0.4-0.3l0.6-0.5c0.1,0.1,0.3,0.3,0.5,0.4c0.5,0.3,1,0.4,1.5,0.4c0.6,0,1.2-0.2,1.7-0.5c0.5-0.3,0.9-0.8,1.2-1.4
		c0.3-0.6,0.5-1.4,0.5-2.3c0-1.4-0.3-2.4-0.8-3.1C44.2,4.1,43.5,3.7,42.7,3.7z M42.3,4.3c0.4,0,0.7,0.1,0.9,0.4
		c0.3,0.2,0.4,0.6,0.6,1.1C43.9,6.4,44,7,44,7.8c0,1.2-0.2,2.1-0.5,2.7c-0.3,0.6-0.8,0.8-1.4,0.8c-0.4,0-0.7-0.1-1.1-0.3
		c-0.2-0.1-0.4-0.2-0.5-0.4V6.1c0.1-0.5,0.3-0.9,0.6-1.1C41.5,4.5,41.9,4.3,42.3,4.3z"/>
	<path class="st0" d="M58,1.2C58,1.1,58,1.1,58,1.2c0-0.1-0.1-0.1-0.1-0.1c0,0,0,0,0,0c-0.4,0-0.8,0-1.3,0c-0.5,0-1,0-1.5,0h-2.7
		c-0.5,0-1,0-1.5,0c-0.5,0-0.9,0-1.3,0c0,0,0,0,0,0c0,0-0.1,0-0.1,0c0,0,0,0,0,0.1c0,0.4,0.1,0.7,0.1,1.1c0,0.4,0,0.6,0,0.8
		c0,0.2,0,0.5,0,0.7c0,0.2,0,0.4,0,0.5c0,0,0,0.1,0,0.1c0,0,0,0,0.1,0H50c0,0,0.1,0,0.1-0.1c0.1-0.7,0.2-1.2,0.3-1.6
		C50.5,2.3,50.7,2,51,1.8c0.3-0.2,0.7-0.3,1.3-0.3H53v8.3c0,0.4,0,0.7-0.1,0.8c-0.1,0.2-0.2,0.3-0.4,0.3c-0.2,0.1-0.5,0.1-0.9,0.1
		c0,0-0.1,0-0.1,0.1v0.3c0,0,0,0.1,0,0.1c0,0,0,0,0.1,0c0.2,0,0.5,0,0.9,0c0.7,0,1.6,0,2.4,0c0.4,0,0.7,0,1,0c0,0,0,0,0,0
		c0,0,0,0,0.1,0c0,0,0,0,0-0.1v-0.3c0,0,0-0.1-0.1-0.1c-0.4,0-0.7-0.1-0.9-0.1c-0.2-0.1-0.3-0.2-0.4-0.3c-0.1-0.2-0.1-0.5-0.1-0.8
		V1.6h0.7c0.6,0,1,0.1,1.3,0.3C56.8,2,57,2.3,57.1,2.7c0.1,0.4,0.2,0.9,0.3,1.6c0,0,0,0.1,0.1,0.1h0.3c0,0,0,0,0.1,0c0,0,0,0,0-0.1
		c0-0.2,0-0.3,0-0.5c0-0.2,0-0.4,0-0.7c0-0.2,0-0.5,0-0.8C57.9,1.9,58,1.5,58,1.2z"/>
	<path class="st0" d="M63.9,3.9c-0.2-0.1-0.5-0.2-0.7-0.2c-0.4,0-0.7,0.1-1,0.3c-0.3,0.2-0.5,0.5-0.8,0.8c-0.1,0.2-0.2,0.3-0.3,0.5
		V3.8c0,0,0-0.1,0-0.1c0,0-0.1,0-0.1,0c-0.2,0.1-0.4,0.1-0.7,0.2c-0.5,0.1-1.1,0.1-1.7,0c0,0-0.1,0-0.1,0c0,0,0,0,0,0.1v0.3
		c0,0.1,0,0.1,0.1,0.1c0.4,0,0.7,0.1,0.8,0.3c0.1,0.2,0.2,0.5,0.2,0.9v4.6c0,0.4-0.1,0.6-0.2,0.8c-0.2,0.1-0.4,0.2-0.8,0.2
		c-0.1,0-0.1,0-0.1,0.1v0.3c0,0,0,0,0,0.1c0,0,0,0,0.1,0c0.2,0,0.4,0,0.7,0c0.8,0,1.6,0,2.3,0c0.4,0,0.7,0,1,0c0,0,0,0,0,0
		c0,0,0,0,0.1,0c0,0,0,0,0-0.1v-0.3c0-0.1,0-0.1-0.1-0.1c-0.5,0-0.8-0.1-1.1-0.2c-0.2-0.1-0.4-0.4-0.4-0.9V6.9
		c0-0.3,0.1-0.7,0.3-1.2c0.2-0.4,0.4-0.8,0.7-1.1c0.3-0.3,0.6-0.4,1-0.4c0.1,0,0.1,0,0.2,0c-0.1,0.1-0.2,0.2-0.3,0.3
		c-0.1,0.1-0.2,0.3-0.2,0.5c0,0.3,0.1,0.5,0.3,0.6C63.3,5.9,63.5,6,63.7,6c0.3,0,0.5-0.1,0.7-0.3c0.2-0.2,0.2-0.4,0.2-0.7
		c0-0.2-0.1-0.4-0.2-0.6C64.3,4.1,64.1,4,63.9,3.9z"/>
	<path class="st0" d="M71.7,10.8C71.7,10.8,71.7,10.8,71.7,10.8c-0.2,0.1-0.3,0.2-0.4,0.2c-0.1,0.1-0.2,0.1-0.3,0.1
		c-0.2,0-0.2-0.1-0.3-0.1c-0.1-0.1-0.1-0.3-0.1-0.5V6.4c0-0.5,0-0.9-0.1-1.2c-0.1-0.4-0.3-0.7-0.5-0.9c-0.2-0.2-0.4-0.3-0.7-0.4
		c-0.3-0.1-0.6-0.1-1.1-0.1c-0.5,0-0.9,0.1-1.2,0.2c-0.4,0.1-0.7,0.3-0.9,0.4c-0.2,0.1-0.4,0.3-0.5,0.5c-0.1,0.2-0.2,0.4-0.2,0.7
		c0,0.2,0.1,0.5,0.2,0.7c0.2,0.2,0.4,0.3,0.7,0.3c0.3,0,0.5-0.1,0.7-0.2c0.2-0.2,0.3-0.4,0.3-0.6c0-0.3-0.1-0.5-0.2-0.7
		c-0.1-0.1-0.2-0.2-0.4-0.3c0.1-0.1,0.3-0.2,0.5-0.3c0.5-0.1,1-0.1,1.4,0c0.2,0.1,0.3,0.2,0.4,0.4c0.1,0.2,0.2,0.5,0.2,0.9v0.9
		c0,0.2-0.1,0.4-0.3,0.5c-0.2,0.1-0.4,0.3-0.8,0.4c-0.3,0.1-0.6,0.2-1,0.4c-0.4,0.1-0.7,0.3-1,0.4c-0.3,0.2-0.6,0.4-0.8,0.7
		c-0.2,0.3-0.3,0.6-0.3,1.1c0,0.6,0.2,1,0.5,1.3c0.3,0.3,0.8,0.5,1.5,0.5c0.4,0,0.9-0.1,1.3-0.3c0.3-0.2,0.7-0.4,1-0.8
		c0,0.2,0.1,0.5,0.2,0.7c0.2,0.3,0.6,0.4,1.1,0.4c0.3,0,0.6-0.1,0.8-0.2c0.2-0.1,0.4-0.2,0.6-0.4c0,0,0-0.1,0-0.1L71.7,10.8
		C71.8,10.8,71.8,10.8,71.7,10.8z M69.2,7.3v2.6c-0.2,0.4-0.5,0.6-0.7,0.8c-0.3,0.2-0.5,0.2-0.8,0.2c-0.3,0-0.6-0.1-0.8-0.3
		c-0.2-0.2-0.3-0.5-0.3-0.9c0-0.5,0.1-0.8,0.3-1c0.2-0.2,0.5-0.4,0.8-0.6c0.3-0.1,0.6-0.3,1-0.4C68.9,7.6,69.1,7.5,69.2,7.3z"/>
	<path class="st0" d="M78.1,9.5c0,0-0.1,0-0.1,0c-0.2,0.5-0.6,0.9-0.9,1.1c-0.7,0.4-1.5,0.4-2.1,0c-0.3-0.2-0.6-0.6-0.7-1.1
		C74,9.2,74,8.5,74,7.7C74,7,74,6.4,74.1,5.9c0.1-0.5,0.3-0.8,0.5-1.1c0.2-0.3,0.4-0.4,0.6-0.6c0.5-0.2,1-0.2,1.5,0
		c0.2,0.1,0.3,0.2,0.4,0.3c-0.1,0.1-0.3,0.1-0.4,0.3c-0.1,0.2-0.2,0.4-0.2,0.6c0,0.3,0.1,0.5,0.3,0.6c0.2,0.1,0.4,0.2,0.6,0.2
		c0.2,0,0.5-0.1,0.6-0.2c0.2-0.2,0.2-0.4,0.2-0.7c0-0.2-0.1-0.5-0.2-0.7c-0.1-0.2-0.3-0.4-0.5-0.5c-0.2-0.2-0.5-0.3-0.8-0.4
		c-0.3-0.1-0.6-0.1-0.9-0.1c-0.7,0-1.3,0.2-1.8,0.5c-0.5,0.4-0.9,0.9-1.2,1.5c-0.3,0.6-0.4,1.4-0.4,2.2c0,0.8,0.1,1.5,0.4,2.1
		c0.3,0.6,0.7,1.1,1.2,1.4c0.5,0.3,1.1,0.5,1.7,0.5c0.5,0,1-0.1,1.4-0.3c0.4-0.2,0.7-0.5,0.9-0.8c0.2-0.3,0.4-0.7,0.5-1
		c0,0,0-0.1-0.1-0.1L78.1,9.5z"/>
	<path class="st0" d="M86.2,11c-0.1-0.1-0.3-0.3-0.5-0.5l-2.6-3.6l1.7-1.8c0.2-0.2,0.4-0.4,0.6-0.5c0.2-0.1,0.4-0.2,0.7-0.2
		c0,0,0.1,0,0.1-0.1V4c0,0,0-0.1,0-0.1c0,0,0,0-0.1,0c-0.1,0-0.2,0-0.3,0c-0.1,0-0.3,0-0.4,0c-0.4,0-0.7,0-1.3,0c-0.3,0-0.6,0-0.9,0
		c0,0,0,0,0,0c0,0,0,0-0.1,0c0,0,0,0,0,0.1v0.3c0,0.1,0,0.1,0.1,0.1c0.3,0,0.6,0,0.8,0.1c0.2,0.1,0.2,0.2,0.2,0.3
		c0,0.1-0.1,0.3-0.4,0.7l-1.1,1.1c-0.2,0.2-0.3,0.3-0.5,0.4c-0.2,0.1-0.3,0.1-0.6,0.2V0c0,0,0-0.1,0-0.1c0,0-0.1,0-0.1,0
		C81.3,0,81,0.1,80.8,0.1c-0.5,0.1-1.1,0.1-1.7,0c0,0-0.1,0-0.1,0c0,0,0,0,0,0.1v0.3c0,0.1,0,0.1,0.1,0.1c0.4,0,0.7,0.1,0.8,0.3
		c0.1,0.2,0.2,0.5,0.2,0.9v8.4c0,0.4-0.1,0.6-0.2,0.8c-0.2,0.1-0.4,0.2-0.8,0.2c-0.1,0-0.1,0-0.1,0.1v0.3c0,0,0,0,0,0.1
		c0,0,0,0,0.1,0c0,0,0,0,0,0c0.2,0,0.4,0,0.8,0c0.7,0,1.3,0,1.9,0c0.3,0,0.5,0,0.7,0c0,0,0.1,0,0.1,0c0,0,0,0,0-0.1v-0.3
		c0-0.1,0-0.1-0.1-0.1c-0.3,0-0.6-0.1-0.7-0.2c-0.1-0.1-0.2-0.4-0.2-0.8V7.7c0.2,0,0.3,0.1,0.5,0.1c0.1,0.1,0.3,0.2,0.5,0.5l1.7,2.5
		c0.1,0.1,0.1,0.2,0,0.2c-0.1,0.1-0.2,0.1-0.3,0.1c-0.1,0-0.1,0-0.1,0.1v0.3c0,0,0,0,0,0.1c0,0,0,0,0.1,0c0.2,0,0.4,0,0.7,0
		c0.5,0,1.1,0,1.6,0c0.2,0,0.4,0,0.5,0c0,0,0.1,0,0.1,0c0,0,0,0,0-0.1v-0.3c0,0,0-0.1-0.1-0.1C86.6,11.1,86.4,11.1,86.2,11z"/>
	<path class="st0" d="M92.8,9.6c0,0-0.1,0-0.1,0c-0.2,0.5-0.5,0.9-0.9,1.1c-0.4,0.2-0.8,0.3-1.2,0.3c-0.4,0-0.7-0.1-1-0.4
		c-0.3-0.2-0.6-0.6-0.8-1.1c-0.2-0.5-0.3-1-0.3-1.7c0-0.2,0-0.3,0-0.5c0-0.1,0-0.2,0-0.3H93c0.1,0,0.1,0,0.1-0.1
		c0-1.1-0.3-2-0.8-2.5c-0.5-0.5-1.2-0.8-2.1-0.8c-0.7,0-1.3,0.2-1.8,0.5c-0.5,0.3-0.9,0.8-1.2,1.5C87,6.3,86.9,7.1,86.9,8
		c0,0.8,0.1,1.4,0.4,2c0.3,0.6,0.7,1.1,1.2,1.4c0.5,0.3,1.1,0.5,1.9,0.5c0.5,0,1-0.1,1.3-0.3c0.4-0.2,0.7-0.5,1-0.8
		c0.3-0.3,0.4-0.6,0.5-1c0,0,0-0.1-0.1-0.1L92.8,9.6z M91.5,6.7h-3c0.1-0.8,0.3-1.5,0.6-1.9c0.3-0.4,0.7-0.6,1.1-0.6
		c0.3,0,0.6,0.1,0.7,0.3c0.2,0.2,0.3,0.5,0.4,0.9C91.5,5.8,91.5,6.2,91.5,6.7z"/>
	<path class="st0" d="M99.8,4.3c-0.1-0.2-0.3-0.3-0.5-0.4c-0.2-0.1-0.5-0.2-0.7-0.2c-0.4,0-0.7,0.1-1,0.3c-0.3,0.2-0.5,0.5-0.8,0.8
		c-0.1,0.2-0.2,0.3-0.3,0.5V3.8c0,0,0-0.1,0-0.1c0,0-0.1,0-0.1,0c-0.2,0.1-0.4,0.1-0.7,0.2C95.2,4,94.6,4,94,3.9c0,0-0.1,0-0.1,0
		c0,0,0,0,0,0.1v0.3c0,0.1,0,0.1,0.1,0.1c0.4,0,0.7,0.1,0.8,0.3C95,4.9,95,5.2,95,5.6v4.6c0,0.4-0.1,0.6-0.2,0.8
		c-0.2,0.1-0.4,0.2-0.8,0.2c-0.1,0-0.1,0-0.1,0.1v0.3c0,0,0,0,0,0.1c0,0,0.1,0,0.1,0c0.2,0,0.4,0,0.7,0c0.8,0,1.6,0,2.3,0
		c0.4,0,0.7,0,1,0c0,0,0,0,0,0c0,0,0,0,0.1,0c0,0,0,0,0-0.1v-0.3c0-0.1,0-0.1-0.1-0.1c-0.5,0-0.8-0.1-1.1-0.2
		c-0.2-0.1-0.4-0.4-0.4-0.9V6.9c0-0.3,0.1-0.7,0.3-1.2c0.2-0.4,0.4-0.8,0.7-1.1c0.3-0.3,0.6-0.4,1-0.4c0.1,0,0.1,0,0.2,0
		c-0.1,0.1-0.2,0.2-0.3,0.3c-0.1,0.1-0.2,0.3-0.2,0.5c0,0.3,0.1,0.5,0.3,0.6C98.6,5.9,98.8,6,99.1,6c0.3,0,0.5-0.1,0.7-0.3
		C99.9,5.5,100,5.2,100,5C100,4.7,99.9,4.5,99.8,4.3z"/>
</g>
</svg>
