<?xml version="1.0" encoding="utf-8"?>
<!-- Generator: Adobe Illustrator 25.4.1, SVG Export Plug-In . SVG Version: 6.00 Build 0)  -->
<svg version="1.1" id="Lager_1" xmlns="http://www.w3.org/2000/svg" xmlns:xlink="http://www.w3.org/1999/xlink" x="0px" y="0px"
	 viewBox="0 0 21.3 30" style="enable-background:new 0 0 21.3 30;" xml:space="preserve">
<style type="text/css">
	.st0{fill:#ECBC4E;}
</style>
<path class="st0" d="M10.7,0C10.7,0,10.7,0,10.7,0C10.6,0,10.6,0,10.7,0C4.7,0,0,4.6,0,10.4c0,0.2,0,0.6,0,0.8
	C0,16.9,10.6,30,10.6,30s0,0,0,0c0,0,0,0,0,0s10.6-13.1,10.6-18.8c0-0.2,0-0.6,0-0.8C21.3,4.6,16.6,0,10.7,0z M10.7,15.6
	C10.7,15.6,10.7,15.6,10.7,15.6C10.6,15.6,10.6,15.6,10.7,15.6c-2.4,0-4.3-1.9-4.3-4.1c0-2.4,1.9-4.1,4.3-4.1c0,0,0,0,0,0s0,0,0,0
	c2.4,0,4.3,1.8,4.3,4.1C14.9,13.7,13,15.6,10.7,15.6z"/>
</svg>
